Coordinates
version=1
nRows=29
nColumns=22
inDegrees=yes

Units are S.I. units (second, meters, Newtons, ...)
If the header above contains a line with 'inDegrees', this indicates whether rotational values are in degrees (yes) or radians (no).

endheader
time	pelvis_tilt	pelvis_list	pelvis_rotation	pelvis_tx	pelvis_ty	pelvis_tz	hip_flexion_r	hip_adduction_r	hip_rotation_r	knee_angle_r	ankle_angle_r	subtalar_angle_r	hip_flexion_l	hip_adduction_l	hip_rotation_l	knee_angle_l	ankle_angle_l	subtalar_angle_l	lumbar_extension	lumbar_bending	lumbar_rotation
      0.01000000	      1.72176275	      3.59791389	    175.58989843	      0.14609266	      1.01880539	      1.00799364	      0.43133996	      0.47070888	     -4.83504974	     -9.36184043	      8.20730289	      1.66361636	     -2.24548944	     -6.65884795	    -14.28520311	     -6.79215876	      9.99098610	      0.39595675	     -2.89785536	      0.82133070	     -2.53427919
      0.02000000	      1.70035254	      3.56071681	    175.53974777	      0.14609914	      1.01887567	      1.00799965	      0.41500739	      0.42316527	     -4.79739275	     -9.35712909	      8.18037257	      1.66714482	     -2.28298771	     -6.60782351	    -14.34245021	     -6.77623494	      9.97400761	      0.39939733	     -2.92239161	      0.77752036	     -2.51250110
      0.03000000	      1.67390068	      3.54459504	    175.47119202	      0.14614973	      1.01895191	      1.00797016	      0.40663405	      0.39897574	     -4.72891850	     -9.37610127	      8.18628938	      1.67237292	     -2.33374157	     -6.57832496	    -14.40645424	     -6.75037988	      9.94752747	      0.40833555	     -2.96354526	      0.75629128	     -2.47876482
      0.04000000	      1.65846521	      3.53369615	    175.41286514	      0.14623765	      1.01901013	      1.00795825	      0.40976888	      0.38089682	     -4.67107267	     -9.39143541	      8.17907605	      1.68159982	     -2.35611691	     -6.55901420	    -14.46143006	     -6.74887074	      9.93903681	      0.41197337	     -2.99793854	      0.74112689	     -2.46034848
      0.05000000	      1.65174824	      3.52778364	    175.35487697	      0.14635618	      1.01905264	      1.00794148	      0.42834146	      0.36970220	     -4.61171946	     -9.41583795	      8.17510378	      1.69021620	     -2.36126493	     -6.54808615	    -14.51278240	     -6.76003413	      9.93489619	      0.40853628	     -3.02647152	      0.72945029	     -2.44540279
      0.06000000	      1.65267437	      3.52393080	    175.30185892	      0.14649866	      1.01908450	      1.00793639	      0.45657112	      0.36099730	     -4.55401789	     -9.44122899	      8.16904572	      1.69863254	     -2.34921884	     -6.54172063	    -14.56057147	     -6.78278338	      9.93742672	      0.39704336	     -3.05069579	      0.72057376	     -2.43929787
      0.07000000	      1.66121067	      3.52229648	    175.25257887	      0.14665159	      1.01910235	      1.00794728	      0.49262481	      0.35489975	     -4.49763814	     -9.46575186	      8.16291637	      1.70718748	     -2.32374247	     -6.53910129	    -14.60632156	     -6.81289684	      9.94419431	      0.37734210	     -3.06802156	      0.71578686	     -2.43857878
      0.08000000	      1.66119034	      3.52375845	    175.22381129	      0.14679713	      1.01913210	      1.00799577	      0.51514770	      0.35109288	     -4.46665673	     -9.48655409	      8.15215659	      1.71057024	     -2.30698194	     -6.53775255	    -14.61619400	     -6.83670170	      9.94522530	      0.36942127	     -3.09631381	      0.71332902	     -2.46719444
      0.09000000	      1.68269383	      3.52485366	    175.17998388	      0.14694223	      1.01912646	      1.00803116	      0.55493863	      0.34947281	     -4.40965447	     -9.49305549	      8.13971506	      1.72033502	     -2.25395020	     -6.54144238	    -14.67024526	     -6.89394561	      9.96536652	      0.33175292	     -3.09847072	      0.71003265	     -2.46762426
      0.10000000	      1.70240314	      3.53247412	    175.15430012	      0.14708275	      1.01912218	      1.00811208	      0.59025305	      0.35372803	     -4.37317087	     -9.49970447	      8.12580414	      1.72711136	     -2.20681288	     -6.54871973	    -14.68593808	     -6.93723617	      9.97529246	      0.29890114	     -3.10445868	      0.71716894	     -2.49413110
      0.11000000	      1.71045228	      3.53814324	    175.13717017	      0.14719536	      1.01912703	      1.00821537	      0.60741627	      0.35444205	     -4.35156655	     -9.50127752	      8.11421602	      1.72967252	     -2.18223074	     -6.54982237	    -14.69218719	     -6.95909728	      9.98126049	      0.28579567	     -3.12334938	      0.72090132	     -2.53309606
      0.12000000	      1.74868971	      3.56036406	    175.12495828	      0.14729731	      1.01908015	      1.00833784	      0.63974912	      0.37555169	     -4.33422728	     -9.47271219	      8.08571842	      1.73596445	     -2.10992138	     -6.57551103	    -14.70475130	     -7.01579706	     10.01605847	      0.23492931	     -3.10412576	      0.74735316	     -2.56600990
      0.13000000	      1.78843096	      3.58408807	    175.11716915	      0.14740657	      1.01902243	      1.00847441	      0.68250272	      0.39786017	     -4.32406632	     -9.46309710	      8.06513357	      1.73638054	     -2.04436865	     -6.59988294	    -14.70039347	     -7.05310609	     10.03994387	      0.18837431	     -3.08657051	      0.77597990	     -2.61332831
      0.14000000	      1.80875926	      3.59882919	    175.11309637	      0.14750366	      1.01898536	      1.00861945	      0.69488333	      0.40911672	     -4.30429915	     -9.43620828	      8.05650226	      1.73672200	     -2.00150548	     -6.61250750	    -14.70204698	     -7.08497969	     10.05107052	      0.17282257	     -3.09225390	      0.79025226	     -2.66402391
      0.15000000	      1.86098217	      3.64007086	    175.11694963	      0.14758015	      1.01889241	      1.00877929	      0.72716760	      0.45149198	     -4.29802951	     -9.38858812	      8.02726385	      1.73918731	     -1.91812619	     -6.65966702	    -14.69429549	     -7.13672467	     10.09636084	      0.13756878	     -3.05960123	      0.84054637	     -2.72045261
      0.16000000	      1.92336405	      3.68438043	    175.11265453	      0.14768685	      1.01877950	      1.00893379	      0.79020297	      0.49626255	     -4.30071182	     -9.37567641	      7.99227126	      1.74056258	     -1.82721368	     -6.70924144	    -14.67833719	     -7.18198554	     10.14342717	      0.09864003	     -3.02126136	      0.89326200	     -2.76090505
      0.17000000	      1.98750371	      3.71323676	    175.10164711	      0.14776202	      1.01866170	      1.00909056	      0.84918842	      0.52344150	     -4.29770492	     -9.35206165	      7.97277495	      1.74038890	     -1.73739699	     -6.74081633	    -14.67405918	     -7.22518000	     10.18007175	      0.06244084	     -2.97555596	      0.92891391	     -2.79093919
      0.18000000	      2.01914772	      3.72729711	    175.08451106	      0.14777588	      1.01859298	      1.00924428	      0.86019884	      0.53116646	     -4.28842541	     -9.30605640	      7.97043870	      1.74273112	     -1.70074994	     -6.74855621	    -14.68229669	     -7.23880375	     10.19588860	      0.05180103	     -2.95943872	      0.94294668	     -2.81711272
      0.19000000	      2.06515212	      3.75023028	    175.06109318	      0.14780458	      1.01851490	      1.00939280	      0.89029980	      0.54894066	     -4.26138734	     -9.26713780	      7.93641536	      1.75613808	     -1.63928158	     -6.76963527	    -14.68916706	     -7.27575024	     10.23001287	      0.03566834	     -2.93202829	      0.96952080	     -2.83752096
      0.20000000	      2.10099151	      3.76105696	    175.02923356	      0.14779197	      1.01845486	      1.00954163	      0.90899048	      0.54999822	     -4.25167280	     -9.22809538	      7.92508433	      1.76861943	     -1.60221422	     -6.77263451	    -14.70598279	     -7.29157105	     10.24731001	      0.03074480	     -2.91059926	      0.98093047	     -2.84175963
      0.21000000	      2.13025820	      3.76356212	    174.99651142	      0.14778654	      1.01841878	      1.00969745	      0.92054041	      0.54048041	     -4.22494038	     -9.18752031	      7.90663363	      1.78692642	     -1.56344073	     -6.76732694	    -14.71938337	     -7.32325284	     10.26196572	      0.03203567	     -2.89947900	      0.98198235	     -2.84884424
      0.22000000	      2.18642594	      3.76845091	    174.94744268	      0.14777347	      1.01835589	      1.00984039	      0.96548165	      0.53355070	     -4.18523806	     -9.15609450	      7.88685645	      1.84749172	     -1.49271149	     -6.76870021	    -14.75632393	     -7.36921448	     10.29178488	      0.05437359	     -2.85746852	      0.98896050	     -2.83470042
      0.23000000	      2.20650833	      3.75865929	    174.92000214	      0.14771926	      1.01835478	      1.01002710	      0.95148966	      0.50610006	     -4.17259550	     -9.09037268	      7.88051628	      1.86512312	     -1.45112931	     -6.75116128	    -14.76121140	     -7.42555468	     10.30222582	      0.05893463	     -2.85550531	      0.97260883	     -2.83692239
      0.24000000	      2.27794320	      3.74413971	    174.87867581	      0.14767910	      1.01829059	      1.01022341	      1.00289019	      0.47379796	     -4.13287269	     -9.04297071	      7.86179518	      1.97939812	     -1.32543660	     -6.74069615	    -14.79384940	     -7.54116707	     10.36290012	      0.09461569	     -2.79493651	      0.95933231	     -2.83256031
      0.25000000	      2.30543984	      3.71848819	    174.86086632	      0.14759976	      1.01829970	      1.01048716	      0.98781408	      0.42342497	     -4.10391975	     -8.96397552	      7.84767259	      2.02741059	     -1.22350561	     -6.71627052	    -14.79292124	     -7.69271391	     10.40405530	      0.09617292	     -2.78595625	      0.93054893	     -2.85406655
      0.26000000	      2.40311302	      3.70318373	    174.84805934	      0.14753826	      1.01821059	      1.01079574	      1.05630619	      0.38554765	     -4.10692622	     -8.90210356	      7.84342087	      2.16977058	     -0.99766234	     -6.71967383	    -14.77743079	     -7.93558666	     10.51296851	      0.09798109	     -2.70025858	      0.92057501	     -2.85334813
      0.27000000	      2.48676657	      3.67914426	    174.85392740	      0.14746156	      1.01814803	      1.01117465	      1.10474541	      0.33439183	     -4.10612049	     -8.83506975	      7.84188782	      2.29947657	     -0.74598319	     -6.71757394	    -14.73164226	     -8.24763161	     10.61576670	      0.07777368	     -2.63259838	      0.90193108	     -2.87826683
      0.28000000	      2.57357346	      3.65470250	    174.87926500	      0.14737660	      1.01807953	      1.01164854	      1.15192091	      0.27847860	     -4.11781687	     -8.76206169	      7.83695510	      2.42757943	     -0.44723840	     -6.71901781	    -14.66268838	     -8.63409689	     10.74345019	      0.03472116	     -2.56684503	      0.88919051	     -2.91842897
      0.29000000	      2.67570473	      3.63219932	    174.92706310	      0.14729833	      1.01798454	      1.01221379	      1.21824712	      0.22210849	     -4.14869830	     -8.69799010	      7.83612086	      2.56940913	     -0.08809060	     -6.72733321	    -14.56163262	     -9.09215367	     10.89002214	     -0.03118226	     -2.48955015	      0.88439377	     -2.97643490
